# xmcd CD database file
#
# Track frame offsets:
#	150
#	16022
#	38450
#	56127
#	72485
#	89137
#	110952
#	125032
#	136942
#	157220
#
# Disc length: 2369 seconds
#
# Revision: 4
# Processed by: cddbd v1.5PL3 Copyright (c) Steve Scherf et al.
# Submitted via: CDex 1.50beta9
#
DISCID=94093f0a
DTITLE=谷山浩子 - しまうま
DYEAR=1996
DGENRE=JPop
TTITLE0=裸足のきみを僕が知ってる
TTITLE1=夜の一品
TTITLE2=きみが壊れた
TTITLE3=月が誘う
TTITLE4=しまうま
TTITLE5=ねこ曜日
TTITLE6=空のオカリナ
TTITLE7=ハーブカーデン
TTITLE8=鳥籠姫
TTITLE9=はじまりの丘
EXTD=YEAR: 1996
EXTT0=
EXTT1=
EXTT2=
EXTT3=
EXTT4=
EXTT5=
EXTT6=
EXTT7=
EXTT8=
EXTT9=
PLAYORDER=
